<?xml version="1.0" encoding="utf-8"?>
<!-- Generator: Adobe Illustrator 19.0.1, SVG Export Plug-In . SVG Version: 6.00 Build 0)  -->
<svg version="1.1" xmlns="http://www.w3.org/2000/svg" xmlns:xlink="http://www.w3.org/1999/xlink" x="0px" y="0px"
	 viewBox="358 -358.5 1000 1000" style="enable-background:new 358 -358.5 1000 1000;" xml:space="preserve">
<style type="text/css">
	.st0{fill:url(#SVGID_1_);}
	.st1{fill:url(#SVGID_2_);}
	.st2{fill:url(#SVGID_3_);}
</style>
<g id="Layer_1">
	
		<linearGradient id="SVGID_1_" gradientUnits="userSpaceOnUse" x1="1134.9204" y1="-372.1143" x2="829.7641" y2="475.6583" gradientTransform="matrix(1 0 0 -1 0 279.1404)">
		<stop  offset="0" style="stop-color:#22EAB3"/>
		<stop  offset="0.112" style="stop-color:#1DD1C1"/>
		<stop  offset="0.2171" style="stop-color:#18B6D1"/>
		<stop  offset="0.3927" style="stop-color:#1898C3"/>
		<stop  offset="0.5644" style="stop-color:#1882B9"/>
		<stop  offset="0.6741" style="stop-color:#187AB5"/>
		<stop  offset="0.813" style="stop-color:#4263BF"/>
		<stop  offset="1" style="stop-color:#8040CE"/>
	</linearGradient>
	<path class="st0" d="M999.6-291.3c-44.2-44.7-100.3-67.2-168.2-67.2s-124.2,22.4-169,67.2c-28.3,28.3-47.6,61.1-57.9,98.6h124.2
		c18.5-31.2,52.7-46.9,102.8-46.9c78.2,0,117.3,39.1,117.3,117.3v705.2c0,16.5,5.7,30.3,16.9,41.7c11.3,11.3,25.2,16.9,41.7,16.9
		s30.3-5.6,41.7-16.9c11.3-11.3,16.9-25.2,16.9-41.7v-705.2C1066-190.3,1044-246.6,999.6-291.3z"/>
</g>
<g id="Layer_3">
	
		<linearGradient id="SVGID_2_" gradientUnits="userSpaceOnUse" x1="540.2653" y1="511.1734" x2="798.3206" y2="35.828" gradientTransform="matrix(1 0 0 -1 0 279.1404)">
		<stop  offset="0" style="stop-color:#9D52D9"/>
		<stop  offset="0.1377" style="stop-color:#C34CAB"/>
		<stop  offset="0.2616" style="stop-color:#DF4889"/>
		<stop  offset="0.3638" style="stop-color:#F14674"/>
		<stop  offset="0.4315" style="stop-color:#F7456D"/>
		<stop  offset="0.5446" style="stop-color:#F75763"/>
		<stop  offset="0.7723" style="stop-color:#F78748"/>
		<stop  offset="1" style="stop-color:#F7BD2A"/>
	</linearGradient>
	<path class="st1" d="M834.1,170.3H712v-293c0-77.3,40-116.3,119.9-117.1c35.8,0.3,64.4-28.9,63-62c-1.4-31.2-29.2-57.1-63-56.7
		c-24.6-0.3-68.3,2.7-114.1,25.8c-20.9,10.6-40,24.2-57.4,41.1c-46.1,44.7-69,100.9-69,168.8v704.5c0,16.5,5.8,30.3,17.5,41.7
		c11.7,11.3,25.9,16.9,42.9,16.9s31.2-5.6,42.9-16.9c11.7-11.3,17.5-25.2,17.5-41.7V300.5c0-7.3,6-13.1,13.5-13.1h108.7
		c16.9,0,31.2-5.6,42.9-16.9c11.7-11.3,17.5-25.2,17.5-41.7c0-15.4-6-29-18.2-40.9C864,176.1,850.1,170.3,834.1,170.3z"/>
</g>
<g id="Layer_2">
	
		<linearGradient id="SVGID_3_" gradientUnits="userSpaceOnUse" x1="1270.4899" y1="-1642.7411" x2="1352.7068" y2="-1725.9836" gradientTransform="matrix(0.9345 -0.356 0.356 0.9345 441.2033 2267.1172)">
		<stop  offset="0" style="stop-color:#F7456D"/>
		<stop  offset="5.620745e-002" style="stop-color:#F75468"/>
		<stop  offset="0.2112" style="stop-color:#F77A5B"/>
		<stop  offset="0.3363" style="stop-color:#F79153"/>
		<stop  offset="0.415" style="stop-color:#F79950"/>
		<stop  offset="0.8978" style="stop-color:#F7E138"/>
	</linearGradient>
	<circle class="st2" cx="1066.1" cy="228.8" r="58.5"/>
</g>
</svg>
