<?xml version="1.0" encoding="utf-8"?>
<!-- Generator: Adobe Illustrator 19.0.1, SVG Export Plug-In . SVG Version: 6.00 Build 0)  -->
<svg version="1.1" id="Layer_1" xmlns:serif="http://www.serif.com/"
	 xmlns="http://www.w3.org/2000/svg" xmlns:xlink="http://www.w3.org/1999/xlink" x="0px" y="0px" viewBox="0 0 960 560"
	 style="enable-background:new 0 0 960 560;" xml:space="preserve">
<style type="text/css">
	.st0{fill:url(#SVGID_1_);}
	.st1{fill:url(#SVGID_2_);}
	.st2{clip-path:url(#SVGID_4_);}
	.st3{fill:url(#SVGID_5_);}
	.st4{clip-path:url(#SVGID_7_);}
	.st5{fill:url(#SVGID_8_);}
	.st6{fill:url(#SVGID_9_);}
	.st7{fill:url(#SVGID_10_);}
	.st8{fill:url(#SVGID_11_);}
</style>
<linearGradient id="SVGID_1_" gradientUnits="userSpaceOnUse" x1="-36.3176" y1="286.2215" x2="536.1926" y2="407.3223">
	<stop  offset="0" style="stop-color:#1E3E9D"/>
	<stop  offset="0" style="stop-color:#1E3E9D"/>
	<stop  offset="1" style="stop-color:#2C5BBE"/>
</linearGradient>
<path class="st0" d="M370.4,189.1c-21.1,5.4-35.2,21.2-51.3,34.6c-20.4,17.5-53.2,18.4-78.7,15.1c-7.4-1.2-99.3-4.5-240.5-76.5
	L0,483.7l959.6,0l-0.1-128.1c-20.5,10.8-158.2,71.1-249.7,67.5c-27.9-1.3-48.1-31.4-55.8-58.1c-2.5-9.4-3.7-19-6.7-27.7
	c-8.4-23.8-32.7-40.6-57.9-40.1c-31.9,1.2-53.8,25.2-80.4,39.5c-19.2,10.1-52.6,13.6-62.9-10.7c-9.6-21.8,6-44.8,10.9-65.8
	c4.8-21-3.4-42.3-20.8-56c-13.4-10.1-32.3-16.7-49.8-16.6C380.9,187.5,375.5,188.2,370.4,189.1z"/>
<g id="Layer_1_1_">
	<g id="Layer_6">
		<g>
			<g>
				
					<linearGradient id="SVGID_2_" gradientUnits="userSpaceOnUse" x1="842.0239" y1="177.2037" x2="755.9616" y2="416.2983" gradientTransform="matrix(1 0 0 -1 0 560)">
					<stop  offset="0" style="stop-color:#22EAB3"/>
					<stop  offset="0.112" style="stop-color:#1DD1C1"/>
					<stop  offset="0.2171" style="stop-color:#18B6D1"/>
					<stop  offset="0.3927" style="stop-color:#1898C3"/>
					<stop  offset="0.5644" style="stop-color:#1882B9"/>
					<stop  offset="0.6741" style="stop-color:#187AB5"/>
					<stop  offset="0.813" style="stop-color:#4263BF"/>
					<stop  offset="1" style="stop-color:#8040CE"/>
				</linearGradient>
				<path class="st1" d="M803.9,117C791.4,104.3,775.6,98,756.4,98s-35,6.3-47.7,18.9c-8,8-13.4,17.2-16.3,27.8h35
					c5.2-8.8,14.9-13.2,29-13.2c22,0,33.1,11,33.1,33.1v198.9c0,4.7,1.6,8.6,4.8,11.8c3.2,3.2,7.1,4.8,11.8,4.8
					c4.7,0,8.6-1.6,11.8-4.8c3.2-3.2,4.8-7.1,4.8-11.8V164.6C822.6,145.5,816.4,129.6,803.9,117z"/>
			</g>
			<g>
				<g>
					<g>
						<g>
							<g>
								<g>
									<g>
										<defs>
											<path id="SVGID_3_" d="M757.2,247.1h-34.4v-82.6c0-21.8,11.3-32.8,33.8-33c10.1,0.1,18.2-8.2,17.8-17.5
												c-0.4-8.8-8.2-16.1-17.8-16c-6.9-0.1-19.3,0.8-32.2,7.3c-5.9,3-11.3,6.8-16.2,11.6c-13,12.6-19.5,28.5-19.5,47.6v198.7
												c0,4.7,1.6,8.6,4.9,11.8c3.3,3.2,7.3,4.8,12.1,4.8c4.8,0,8.8-1.6,12.1-4.8c3.3-3.2,4.9-7.1,4.9-11.8v-83h34.5
												c4.8,0,8.8-1.6,12.1-4.8c3.3-3.2,4.9-7.1,4.9-11.8c0-4.3-1.7-8.2-5.1-11.5C765.6,248.8,761.7,247.1,757.2,247.1z"/>
										</defs>
										<clipPath id="SVGID_4_">
											<use xlink:href="#SVGID_3_"  style="overflow:visible;"/>
										</clipPath>
										<g class="st2">
											<g>
												
													<linearGradient id="SVGID_5_" gradientUnits="userSpaceOnUse" x1="674.3164" y1="426.3221" x2="747.095" y2="292.2619" gradientTransform="matrix(1 0 0 -1 0 560)">
													<stop  offset="0" style="stop-color:#9D52D9"/>
													<stop  offset="0.1377" style="stop-color:#C34CAB"/>
													<stop  offset="0.2616" style="stop-color:#DF4889"/>
													<stop  offset="0.3638" style="stop-color:#F14674"/>
													<stop  offset="0.4315" style="stop-color:#F7456D"/>
													<stop  offset="0.5446" style="stop-color:#F75763"/>
													<stop  offset="0.7723" style="stop-color:#F78748"/>
													<stop  offset="1" style="stop-color:#F7BD2A"/>
												</linearGradient>
												<path class="st3" d="M757.2,247.1h-34.4v-82.6c0-21.8,11.3-32.8,33.8-33c10.1,0.1,18.2-8.2,17.8-17.5
													c-0.4-8.8-8.2-16.1-17.8-16c-6.9-0.1-19.3,0.8-32.2,7.3c-5.9,3-11.3,6.8-16.2,11.6c-13,12.6-19.5,28.5-19.5,47.6v198.7
													c0,4.7,1.6,8.6,4.9,11.8c3.3,3.2,7.3,4.8,12.1,4.8c4.8,0,8.8-1.6,12.1-4.8c3.3-3.2,4.9-7.1,4.9-11.8v-79.3
													c0-2,1.7-3.7,3.8-3.7h30.7c4.8,0,8.8-1.6,12.1-4.8c3.3-3.2,4.9-7.1,4.9-11.8c0-4.3-1.7-8.2-5.1-11.5
													C765.6,248.8,761.7,247.1,757.2,247.1z"/>
											</g>
										</g>
									</g>
								</g>
							</g>
						</g>
					</g>
				</g>
			</g>
			<g>
				<g>
					<g>
						<g>
							<g>
								<g>
									<g>
										<defs>
											<circle id="SVGID_6_" cx="822.8" cy="263.1" r="17.9"/>
										</defs>
										<clipPath id="SVGID_7_">
											<use xlink:href="#SVGID_6_"  style="overflow:visible;"/>
										</clipPath>
										<g class="st4">
											<g>
												
													<linearGradient id="SVGID_8_" gradientUnits="userSpaceOnUse" x1="1089.9841" y1="-601.0168" x2="1104.7034" y2="-570.1205" gradientTransform="matrix(0.7155 0.6986 0.6986 -0.7155 444.3429 -921.5403)">
													<stop  offset="0" style="stop-color:#C447BB"/>
													<stop  offset="0.1119" style="stop-color:#DF529B"/>
													<stop  offset="0.2095" style="stop-color:#F15986"/>
													<stop  offset="0.2742" style="stop-color:#F75B7F"/>
													<stop  offset="0.4651" style="stop-color:#F78C5B"/>
													<stop  offset="0.6345" style="stop-color:#F7B040"/>
													<stop  offset="0.7719" style="stop-color:#F7C630"/>
													<stop  offset="0.8602" style="stop-color:#F7CE2A"/>
												</linearGradient>
												<circle class="st5" cx="822.8" cy="263.1" r="17.9"/>
											</g>
										</g>
									</g>
								</g>
							</g>
						</g>
					</g>
				</g>
			</g>
		</g>
	</g>
</g>
<g>
	<linearGradient id="SVGID_9_" gradientUnits="userSpaceOnUse" x1="875.5588" y1="397.8359" x2="363.5141" y2="397.8359">
		<stop  offset="0" style="stop-color:#1E3E9D"/>
		<stop  offset="0" style="stop-color:#1E3E9D"/>
		<stop  offset="1" style="stop-color:#2C5BBE"/>
	</linearGradient>
	<path class="st6" d="M959.8,359.2c0,41.5,0,83.1,0,124.6c-0.4,0-0.9-0.1-1.3-0.1c-319,0-637.9,0-956.9,0c-0.4,0-0.9,0.1-1.3,0.1
		c0-26.6,0-53.2,0-79.8c0.3-0.1,0.7-0.1,1-0.3c2.2-1.2,4.4-2.4,6.6-3.5c6.4-3.2,12.7-6.4,19.2-9.5c6.7-3.2,13.4-6.3,20.1-9.4
		c4.5-2.1,9-4.1,13.5-6.1c6.5-2.8,12.9-5.5,19.4-8.2c5.2-2.2,10.5-4.3,15.8-6.3c6.4-2.5,12.9-5,19.4-7.4c7.7-2.8,15.5-5.7,23.3-8.3
		c13.1-4.4,26.3-8.5,39.4-12.7c4.4-1.4,8.8-2.7,13.3-4c5.3-1.5,10.6-3,15.9-4.4c7.3-2,14.7-4.1,22.1-5.9c5.8-1.4,11.6-2.5,17.4-3.6
		c3.3-0.6,6.7-1.1,10.1-1.5c2.9-0.3,5.9-0.5,8.8-0.7c0.2,0,0.4-0.2,0.6-0.3c5.1,0,10.3,0,15.4,0c0.2,0.1,0.4,0.3,0.6,0.3
		c3.5,0.4,6.9,0.7,10.4,1.1c5.1,0.6,10,1.9,14.9,3.4c6.9,2.1,13.6,5,19.8,8.7c6.4,3.8,12.3,8.2,17.2,13.8c2.9,3.4,5.7,6.9,8.3,10.6
		c2.3,3.3,4.3,6.9,6.3,10.4c3.2,5.4,6.2,10.8,9.4,16.2c2.9,4.8,6.2,9.4,10,13.5c4.4,4.8,9.4,9,14.9,12.5c5.3,3.4,10.9,6.1,16.8,8.3
		c6.5,2.4,13.2,4.2,20.1,5c4.5,0.5,9,1,13.5,1.3c2.5,0.2,5,0,7.5-0.2c3.9-0.2,7.9-0.5,11.8-0.9c3.6-0.4,7.1-0.9,10.7-1.6
		c7.7-1.5,15.3-3.5,22.7-5.9c10.1-3.2,20-7,29.8-11c5.3-2.1,10.5-4.3,15.8-6.2c7.1-2.6,14.4-4.6,22-5.2c4-0.3,8.1-0.2,12,0.3
		c4.2,0.6,8.4,1.7,12.4,3.3c4.8,1.8,9.4,4,13.7,6.8c4,2.6,7.9,5.4,11.7,8.3c4.6,3.5,8.9,7.3,12.8,11.6c3.1,3.5,6.4,6.8,9.7,10.1
		c3.2,3.2,6.4,6.3,9.7,9.3c3.5,3.2,7.4,5.8,11.5,8.1c4.3,2.3,9,3.7,13.9,4.2c4.1,0.5,8.2,0.9,12.3,1.1c2.6,0.1,5.2-0.1,7.8-0.2
		c3.8-0.2,7.5-0.4,11.3-0.7c3-0.2,6.1-0.5,9.1-0.9c3.9-0.5,7.8-1.1,11.7-1.8c5.2-0.9,10.3-1.7,15.4-2.7c8.1-1.7,16.2-3.4,24.2-5.4
		c10.6-2.7,21.1-5.5,31.6-8.6c10.2-2.9,20.4-6,30.5-9.4c11.1-3.7,22.1-7.6,33.1-11.5c6.2-2.2,12.3-4.5,18.4-7
		c8.3-3.3,16.5-6.7,24.7-10.2c7.3-3.1,14.5-6.3,21.6-9.8c7.2-3.6,14.3-7.4,21.4-11.3C950,366.6,955.1,363.1,959.8,359.2z"/>
	<linearGradient id="SVGID_10_" gradientUnits="userSpaceOnUse" x1="0.2233" y1="483.8524" x2="959.7851" y2="483.8524">
		<stop  offset="0" style="stop-color:#22EAB3"/>
		<stop  offset="0.112" style="stop-color:#1DD1C1"/>
		<stop  offset="0.2171" style="stop-color:#18B6D1"/>
		<stop  offset="0.3927" style="stop-color:#1898C3"/>
		<stop  offset="0.5644" style="stop-color:#1882B9"/>
		<stop  offset="0.6741" style="stop-color:#187AB5"/>
		<stop  offset="0.813" style="stop-color:#4263BF"/>
		<stop  offset="1" style="stop-color:#8040CE"/>
	</linearGradient>
	<path class="st7" d="M0.2,483.8c0.4,0,0.9-0.1,1.3-0.1c319,0,637.9,0,956.9,0c0.4,0,0.9,0.1,1.3,0.1c0,0.1-0.1,0.2-0.1,0.2
		c-0.3,0-0.6,0-0.9,0c-319.2,0-638.4,0-957.6,0C0.9,484,0.6,483.9,0.2,483.8z"/>
</g>
<linearGradient id="SVGID_11_" gradientUnits="userSpaceOnUse" x1="0.4284" y1="559.9402" x2="0.4711" y2="560.0347" gradientTransform="matrix(336.8319 299.9184 299.9185 -336.8318 -167613.2031 188783.3906)">
	<stop  offset="0" style="stop-color:#1E3E9D"/>
	<stop  offset="0" style="stop-color:#1E3E9D"/>
	<stop  offset="1" style="stop-color:#2C5BBE"/>
</linearGradient>
<path class="st8" d="M485.4,259.8c-12.9,5-22.6,19-27.9,31.4c-4.3,9.3-4.6,19.8,0.8,28.5c9,15.4,28.4,17.3,43.6,9.8
	c9.6-5.1,19.7-12.6,26.7-21.1c4.5-5.7,5.3-12.3,3.4-19.1c-1.1-3.8-2.8-7.7-5.1-10.8c-7.5-10.7-18.6-20.6-31.8-20.4
	C491.6,257.9,488.3,258.4,485.4,259.8z"/>
</svg>
